<svg width="600" height="600" viewBox="0 0 600 600" fill="none" xmlns="http://www.w3.org/2000/svg">
<g clip-path="url(#clip0_73_12)">
<path d="M46.1502 0.000170223C40.085 -0.0163246 34.0765 1.16612 28.4698 3.47953C22.8632 5.79295 17.7691 9.1917 13.4804 13.4804C9.1917 17.7691 5.79295 22.8632 3.47953 28.4698C1.16612 34.0765 -0.0163246 40.085 0.000170223 46.1502V507.725C0.000170223 533.275 20.5752 553.85 46.1502 553.85H553.85C559.911 553.867 565.916 552.686 571.519 550.376C577.122 548.065 582.214 544.671 586.502 540.388C590.79 536.104 594.19 531.016 596.506 525.415C598.823 519.814 600.01 513.811 600 507.75V46.1502C600.017 40.085 598.834 34.0765 596.521 28.4698C594.207 22.8632 590.809 17.7691 586.52 13.4804C582.231 9.1917 577.137 5.79295 571.53 3.47953C565.924 1.16612 559.915 -0.0163246 553.85 0.000170223H46.1502ZM46.1502 23.1002H553.85C566.65 23.1002 576.9 33.3502 576.9 46.1502V507.725C576.9 520.5 566.65 530.75 553.85 530.75H46.1502C43.1225 530.76 40.1228 530.171 37.3234 529.018C34.524 527.865 31.9802 526.17 29.8382 524.03C27.6961 521.89 25.9981 519.348 24.8418 516.55C23.6854 513.752 23.0936 510.753 23.1002 507.725V46.1502C23.1002 33.3502 33.3502 23.1002 46.1502 23.1002ZM46.1502 46.1502V507.725H553.85V46.1502H46.1502ZM92.2752 99.6502L173.15 143.6V164.5L92.2502 211.925V184.625L148.325 154.45V153.625L92.2502 126.9L92.2752 99.6502ZM196.15 230.75H288.475V253.85H196.15V230.75ZM0.000170223 543.4V553.85C0.000170223 579.425 20.5752 600 46.1502 600H553.85C559.915 600.017 565.924 598.834 571.53 596.521C577.137 594.207 582.231 590.809 586.52 586.52C590.809 582.231 594.207 577.137 596.521 571.53C598.834 565.924 600.017 559.915 600 553.85V543.4C594.579 550.504 587.598 556.268 579.596 560.247C571.595 564.226 562.786 566.314 553.85 566.35H46.1502C37.2139 566.314 28.4054 564.226 20.4038 560.247C12.4023 556.268 5.42161 550.504 0.000170223 543.4Z" fill="white"/>
</g>
<defs>
<clipPath id="clip0_73_12">
<rect width="600" height="600" fill="white"/>
</clipPath>
</defs>
</svg>
